<svg width="334" height="334" viewBox="0 0 334 334" fill="none" xmlns="http://www.w3.org/2000/svg">
<path d="M110.296 23.4317C141.538 -7.8106 192.192 -7.81057 223.434 23.4318L310.298 110.296C341.541 141.538 341.541 192.192 310.298 223.434L223.434 310.298C192.192 341.541 141.538 341.541 110.296 310.298L23.4317 223.434C-7.8106 192.192 -7.81057 141.538 23.4318 110.296L110.296 23.4317Z" fill="#FFBA44"/>
<path d="M177.404 122.059C177.424 125.591 175.634 128.7 172.904 130.512C171.309 131.57 169.395 132.186 167.333 132.186C164.885 132.186 162.636 131.319 160.876 129.874C158.613 128.017 157.162 125.206 157.143 122.059C157.11 116.467 161.619 111.933 167.214 111.933C172.809 111.933 177.371 116.467 177.404 122.059Z" fill="white"/>
<path fill-rule="evenodd" clip-rule="evenodd" d="M212.664 132.202L212.664 132.33L214.426 132.325C221.606 132.304 227.444 138.108 227.465 145.288L227.703 225.654C227.724 232.834 221.921 238.671 214.741 238.692L119.18 238.968C112 238.989 106.162 233.185 106.141 226.005L105.903 145.639C105.881 138.459 111.685 132.622 118.865 132.601L121.06 132.595V132.202C121.06 107.073 141.566 86.7012 166.862 86.7012C192.158 86.7012 212.664 107.073 212.664 132.202ZM174.242 177.116V157.665C185.916 154.784 194.676 144.682 195.523 132.38C195.572 131.658 195.595 130.929 195.589 130.194C195.467 114.566 182.651 101.897 166.966 101.897C151.28 101.897 138.663 114.566 138.786 130.194C138.792 130.985 138.831 131.769 138.901 132.543C139.957 144.236 148.133 153.914 159.047 157.247V177.043V177.703V215.862C159.047 220.058 162.448 223.459 166.644 223.459C166.668 223.459 166.692 223.459 166.716 223.459C166.738 223.459 166.759 223.459 166.78 223.459H184.238C187.11 223.459 189.438 221.131 189.438 218.259V215.997C189.438 213.125 187.11 210.797 184.238 210.797H174.242V198.134H184.238C187.11 198.134 189.438 195.806 189.438 192.934V190.671C189.438 187.799 187.11 185.471 184.238 185.471H174.242V177.703V177.116ZM177.404 122.059C177.424 125.591 175.634 128.7 172.904 130.512C171.309 131.57 169.395 132.186 167.333 132.186C164.885 132.186 162.636 131.319 160.876 129.874C158.613 128.017 157.162 125.206 157.143 122.059C157.11 116.467 161.619 111.933 167.214 111.933C172.809 111.933 177.371 116.467 177.404 122.059Z" fill="white"/>
</svg>
