<svg width="334" height="334" viewBox="0 0 334 334" fill="none" xmlns="http://www.w3.org/2000/svg">
<path d="M110.296 23.4317C141.538 -7.8106 192.192 -7.81057 223.434 23.4318L310.298 110.296C341.541 141.538 341.541 192.192 310.298 223.434L223.434 310.298C192.192 341.541 141.538 341.541 110.296 310.298L23.4317 223.434C-7.8106 192.192 -7.81057 141.538 23.4318 110.296L110.296 23.4317Z" fill="#28B2FF"/>
<path d="M128.345 229.927C128.345 239.283 135.929 246.867 145.285 246.867C154.641 246.867 162.225 239.283 162.225 229.927V173.392C154.389 175.438 148.605 182.565 148.605 191.042V199.855L148.605 199.897V222.977C151.196 224.217 152.986 226.863 152.986 229.927C152.986 234.18 149.538 237.627 145.286 237.627C141.033 237.627 137.586 234.18 137.586 229.927C137.586 226.863 139.375 224.218 141.965 222.978V199.897L141.965 199.861C141.949 191.399 136.171 184.29 128.346 182.247V197.522L128.345 197.472V229.927Z" fill="white"/>
<path fill-rule="evenodd" clip-rule="evenodd" d="M128.345 109.805C128.345 100.45 135.929 92.8652 145.285 92.8652C154.641 92.8652 162.225 100.45 162.225 109.805V166.59C152.977 168.327 145.534 175.18 142.947 184.099C139.314 179.684 134.19 176.542 128.346 175.445C126.848 175.163 125.304 175.016 123.725 175.016C122.129 175.016 120.581 174.811 119.105 174.426L119.106 156.006C119.106 158.558 121.175 160.626 123.726 160.626C126.246 160.626 128.295 158.609 128.345 156.101L128.345 109.805ZM119.105 174.426C111.268 172.381 105.485 165.254 105.485 156.776V155.255C108.075 154.015 109.864 151.369 109.864 148.306C109.864 144.053 106.417 140.606 102.164 140.606C97.9112 140.606 94.4638 144.053 94.4638 148.306C94.4638 151.37 96.2535 154.016 98.8446 155.256V156.776C98.8446 168.939 107.572 179.063 119.105 181.228C120.602 181.509 122.146 181.656 123.725 181.656C125.321 181.656 126.87 181.862 128.346 182.247V197.522L128.345 197.472C128.284 194.974 126.239 192.966 123.726 192.966C121.174 192.966 119.106 195.035 119.106 197.587C119.106 206.942 111.521 214.527 102.165 214.527C92.809 214.527 85.2246 206.942 85.2246 197.587V148.306C85.2246 138.95 92.809 131.366 102.165 131.366C111.521 131.366 119.105 138.95 119.105 148.306L119.105 174.426ZM205.346 155.946C197.509 153.9 191.726 146.773 191.726 138.296L191.726 116.755C194.317 115.516 196.106 112.87 196.106 109.806C196.106 105.553 192.659 102.105 188.406 102.105C184.154 102.105 180.706 105.553 180.706 109.806C180.706 112.869 182.495 115.515 185.086 116.755V147.921C185.086 156.399 179.302 163.526 171.466 165.571C169.99 165.957 168.442 166.162 166.845 166.162C165.267 166.162 163.722 166.309 162.225 166.59L162.226 131.366L162.227 131.366C162.227 133.918 164.295 135.986 166.847 135.986C169.358 135.986 171.402 133.983 171.465 131.487L171.465 109.805C171.465 100.45 179.05 92.8652 188.405 92.8652C197.761 92.8652 205.346 100.45 205.346 109.805V155.946ZM205.346 162.748C206.843 163.029 208.387 163.176 209.966 163.176C211.562 163.176 213.11 163.381 214.585 163.766V156.964C213.089 156.683 211.545 156.536 209.966 156.536C208.37 156.536 206.821 156.331 205.346 155.946L205.347 142.146C205.347 144.697 207.415 146.766 209.967 146.766C212.48 146.766 214.525 144.759 214.585 142.26V142.146C214.585 132.79 222.17 125.206 231.526 125.206C240.881 125.206 248.466 132.79 248.466 142.146V191.426C248.466 200.782 240.881 208.367 231.526 208.367C222.17 208.367 214.585 200.782 214.585 191.426V183.614C214.526 181.114 212.481 179.106 209.967 179.106C207.422 179.106 205.359 181.162 205.347 183.704L205.346 162.748ZM205.346 162.748V229.927C205.346 239.283 197.761 246.867 188.405 246.867C179.05 246.867 171.465 239.283 171.465 229.927L171.465 206.767C171.434 204.243 169.378 202.207 166.846 202.207C164.294 202.207 162.226 204.275 162.226 206.827L162.225 173.392C163.701 173.007 165.249 172.802 166.845 172.802C168.424 172.802 169.969 172.655 171.466 172.374C180.913 170.6 188.477 163.486 190.904 154.286C194.527 158.6 199.586 161.666 205.346 162.748ZM228.207 181.416V184.477C225.616 185.717 223.826 188.363 223.826 191.427C223.826 195.679 227.274 199.127 231.526 199.127C235.779 199.127 239.227 195.679 239.227 191.427C239.227 188.363 237.437 185.717 234.847 184.477V181.416C234.847 169.254 226.12 159.13 214.587 156.964L214.587 163.766C222.423 165.812 228.207 172.939 228.207 181.416Z" fill="white"/>
</svg>
