<svg width="334" height="334" viewBox="0 0 334 334" fill="none" xmlns="http://www.w3.org/2000/svg">
<path d="M110.296 23.4317C141.538 -7.8106 192.192 -7.81057 223.434 23.4318L310.298 110.296C341.541 141.538 341.541 192.192 310.298 223.434L223.434 310.298C192.192 341.541 141.538 341.541 110.296 310.298L23.4317 223.434C-7.8106 192.192 -7.81057 141.538 23.4318 110.296L110.296 23.4317Z" fill="#5EDA12"/>
<path d="M199.432 192.603C231.53 192.603 257.592 166.759 257.944 134.745L198.775 192.599C198.994 192.602 199.213 192.603 199.432 192.603Z" fill="white"/>
<path d="M236.241 113.704C204.143 113.704 178.081 139.548 177.728 171.562L236.898 113.708C236.679 113.705 236.46 113.704 236.241 113.704Z" fill="white"/>
<path d="M257.944 113.703H236.905V134.743H257.944V113.703Z" fill="white"/>
<path fill-rule="evenodd" clip-rule="evenodd" d="M177.734 198.758V187.144H190.22V198.758C190.22 213.301 182.525 226.759 169.991 234.137L167.531 235.585L161.197 224.824L163.658 223.376C172.379 218.243 177.734 208.878 177.734 198.758Z" fill="white"/>
<path d="M140.795 194.799C109.024 194.799 83.2282 169.219 82.8793 137.531L141.445 194.795C141.443 194.795 141.441 194.796 141.438 194.796C141.224 194.798 141.01 194.799 140.795 194.799Z" fill="white"/>
<path d="M104.332 116.709C136.102 116.709 161.899 142.289 162.247 173.977L103.681 116.712C103.898 116.71 104.115 116.709 104.332 116.709Z" fill="white"/>
<path d="M82.8643 116.707H103.689V137.532H82.8643V116.707Z" fill="white"/>
<path fill-rule="evenodd" clip-rule="evenodd" d="M149.865 247.277C155.152 247.277 159.437 242.992 159.437 237.705C159.437 232.418 155.152 228.132 149.865 228.132C144.578 228.132 140.292 232.418 140.292 237.705C140.292 242.992 144.578 247.277 149.865 247.277ZM149.865 258.705C161.463 258.705 170.865 249.303 170.865 237.705C170.865 226.107 161.463 216.704 149.865 216.704C138.267 216.704 128.864 226.107 128.864 237.705C128.864 249.303 138.267 258.705 149.865 258.705Z" fill="white"/>
<path d="M176.865 205.704C171.365 217.704 162.265 216.704 149.865 216.704L173.865 229.705L176.865 205.704Z" fill="white"/>
<path d="M181.865 223.705C179.032 227.205 172.865 234.705 169.865 244.205L163.865 224.705L181.865 223.705Z" fill="white"/>
<path fill-rule="evenodd" clip-rule="evenodd" d="M103.689 116.707L82.8643 137.532L141.433 194.8L141.438 194.796V194.801H162.263V173.977H162.257L162.258 173.976L103.689 116.707ZM134.931 176.554C136.717 178.339 139.568 178.41 141.438 176.766C141.516 176.698 141.591 176.627 141.665 176.554C142.393 175.826 142.836 174.92 142.994 173.977C143.24 172.51 142.796 170.951 141.665 169.82L111.192 139.346C109.332 137.487 106.318 137.487 104.458 139.346C102.599 141.206 102.599 144.221 104.458 146.08L134.931 176.554Z" fill="white"/>
<path fill-rule="evenodd" clip-rule="evenodd" d="M236.905 113.703L257.944 134.743L198.777 192.596V192.602H177.737V171.567L177.732 171.561L236.905 113.703ZM198.777 172.744C198.96 173.031 199.176 173.303 199.427 173.553C201.286 175.413 204.301 175.413 206.161 173.553L236.634 143.08C238.493 141.221 238.493 138.206 236.634 136.346C234.775 134.487 231.76 134.487 229.9 136.346L199.427 166.82C198.143 168.103 197.746 169.938 198.234 171.562C198.358 171.974 198.539 172.372 198.777 172.744Z" fill="white"/>
</svg>
