<svg width="334" height="334" viewBox="0 0 334 334" fill="none" xmlns="http://www.w3.org/2000/svg">
<path d="M110.294 23.4314C141.536 -7.8105 192.189 -7.81047 223.431 23.4315L310.294 110.294C341.536 141.536 341.536 192.189 310.294 223.431L223.431 310.294C192.189 341.536 141.536 341.536 110.294 310.294L23.4314 223.431C-7.8105 192.189 -7.81046 141.536 23.4315 110.294L110.294 23.4314Z" fill="#1E6CFF"/>
<rect x="99.5879" y="138.367" width="16.2938" height="57.0077" fill="white"/>
<path fill-rule="evenodd" clip-rule="evenodd" d="M83.0457 196.28C100.034 196.28 112.233 181.709 112.233 166.861C112.233 152.836 100.115 137.441 83.0457 137.441C66.7213 137.441 54.3271 150.613 54.3271 166.861C54.3271 183.109 66.7213 196.28 83.0457 196.28ZM84.8348 181.41C93.2047 181.41 99.5886 175.174 99.5886 166.861C99.5886 158.547 93.2047 152.312 84.8348 152.312C76.4648 152.312 69.9827 158.826 69.9827 166.861C69.9827 174.896 76.4648 181.41 84.8348 181.41Z" fill="white"/>
<path fill-rule="evenodd" clip-rule="evenodd" d="M181.335 154.261L166.415 161.192C164.512 156.904 160.498 153.454 155.071 153.454C147.354 153.454 141.378 159.459 141.378 166.867C141.378 174.275 147.354 180.28 155.071 180.28C160.622 180.28 164.694 177.171 166.542 172.669L181.432 179.69C176.857 189.513 167.042 196.286 154.806 196.286C138.331 196.286 125.387 183.115 125.387 166.867C125.387 150.619 138.92 137.447 154.806 137.447C166.282 137.447 176.53 144.32 181.335 154.261Z" fill="white"/>
<rect x="190.562" y="138.357" width="16.2938" height="57.028" fill="white"/>
<path d="M226.77 160.534L243.063 159.176V195.384H226.77V160.534Z" fill="white"/>
<path d="M262.979 160.534L279.272 159.176V195.384H262.979V160.534Z" fill="white"/>
<path d="M221.459 137.447C235.878 137.447 243.064 148.495 243.064 160.078L226.771 163.107C226.771 158.098 222.245 153.589 216.813 153.589C211.382 153.589 206.856 158.271 206.856 163.702L202.54 157.611C200.842 153.589 206.997 137.447 221.459 137.447Z" fill="white"/>
<path d="M257.667 137.447C272.086 137.447 279.272 148.495 279.272 160.078L262.979 163.107C262.979 158.098 258.453 153.589 253.021 153.589C247.59 153.589 243.064 158.271 243.064 163.702L238.748 157.611C237.05 153.589 243.205 137.447 257.667 137.447Z" fill="white"/>
<path d="M257.667 137.447C272.086 137.447 279.272 148.495 279.272 160.078L262.979 161.435C262.979 156.427 258.453 152.383 253.021 152.383C247.59 152.383 243.064 156.004 243.064 161.435L234.917 152.836C238.538 144.689 243.205 137.447 257.667 137.447Z" fill="white"/>
</svg>
