<svg width="334" height="334" viewBox="0 0 334 334" fill="none" xmlns="http://www.w3.org/2000/svg">
<path d="M110.296 23.4317C141.538 -7.8106 192.192 -7.81057 223.434 23.4318L310.298 110.296C341.541 141.538 341.541 192.192 310.298 223.434L223.434 310.298C192.192 341.541 141.538 341.541 110.296 310.298L23.4317 223.434C-7.8106 192.192 -7.81057 141.538 23.4318 110.296L110.296 23.4317Z" fill="#00D4CA"/>
<path fill-rule="evenodd" clip-rule="evenodd" d="M85.7601 125.031C95.0924 120.871 106.03 125.065 110.19 134.397L129.271 179.206L150.54 137.306C153.754 131.276 160.031 127.508 166.865 127.508C173.699 127.508 179.977 131.276 183.191 137.306L204.459 179.206L223.541 134.397C227.7 125.065 238.638 120.871 247.97 125.031C257.302 129.191 261.496 140.128 257.336 149.461L222.84 226.851C219.963 233.307 213.658 237.56 206.594 237.808C199.53 238.057 192.942 234.259 189.617 228.022L166.865 185.339L144.113 228.022C140.789 234.259 134.2 238.057 127.136 237.808C120.073 237.56 113.768 233.307 110.89 226.851L76.3943 149.461C72.2346 140.128 76.4278 129.191 85.7601 125.031Z" fill="white"/>
</svg>
