<svg width="334" height="334" viewBox="0 0 334 334" fill="none" xmlns="http://www.w3.org/2000/svg">
<path d="M110.296 23.4317C141.538 -7.8106 192.192 -7.81057 223.434 23.4318L310.298 110.296C341.541 141.538 341.541 192.192 310.298 223.434L223.434 310.298C192.192 341.541 141.538 341.541 110.296 310.298L23.4317 223.434C-7.8106 192.192 -7.81056 141.538 23.4318 110.296L110.296 23.4317Z" fill="#FE823C"/>
<path d="M191.865 141.704C191.865 114.077 169.491 91.7031 141.865 91.7031C114.238 91.7031 91.864 114.077 91.864 141.704C91.864 169.33 114.238 191.704 141.865 191.704C141.865 164.078 164.239 141.704 191.865 141.704Z" fill="white"/>
<path d="M191.865 141.704C191.865 169.33 169.491 191.704 141.865 191.704C141.865 219.331 164.239 241.705 191.865 241.705C219.492 241.705 241.866 219.331 241.866 191.704C241.866 164.078 219.492 141.704 191.865 141.704Z" fill="white"/>
</svg>
