<svg width="339" height="339" viewBox="0 0 339 339" fill="none" xmlns="http://www.w3.org/2000/svg">
<rect width="287.423" height="287.423" rx="82.4586" transform="matrix(0.707551 0.706663 -0.707551 0.706663 169.504 -33.2852)" fill="url(#paint0_linear_816_7599)"/>
<mask id="mask0_816_7599" style="mask-type:alpha" maskUnits="userSpaceOnUse" x="0" y="0" width="339" height="339">
<rect width="287.423" height="287.423" rx="82.4586" transform="matrix(0.707551 0.706663 -0.707551 0.706663 169.504 -33.2852)" fill="url(#paint1_linear_816_7599)"/>
</mask>
<g mask="url(#mask0_816_7599)">
<g filter="url(#filter0_f_816_7599)">
<rect width="282.884" height="282.884" rx="65.9669" transform="matrix(0.706658 0.707555 -0.706658 0.707555 169.502 -30.0723)" fill="white"/>
</g>
</g>
<path d="M68.4555 105.047C65.2851 105.047 62.5374 103.937 60.2124 101.718C57.9932 99.4983 56.8835 96.8035 56.8835 93.6331C56.8835 90.9911 57.9932 88.6661 60.2124 86.6582C62.5374 84.5446 65.2851 83.4878 68.4555 83.4878C70.9918 83.4878 73.3168 84.5446 75.4304 86.6582C77.544 88.7718 78.6008 91.0968 78.6008 93.6331C78.6008 96.6978 77.544 99.3926 75.4304 101.718C73.3168 103.937 70.9918 105.047 68.4555 105.047ZM59.7369 120.74H77.3326V200C77.3326 210.568 75.0605 219.287 70.5162 226.156C65.972 233.025 58.8914 236.46 49.2746 236.46C45.3644 236.46 42.6167 236.407 41.0315 236.301C39.4463 236.195 37.1214 235.878 34.0566 235.35V218.864C35.4305 218.97 37.3856 219.287 39.9219 219.815C40.2389 219.815 40.6616 219.868 41.19 219.974C41.8241 220.185 42.4582 220.291 43.0923 220.291C49.7501 220.291 54.1887 218.124 56.408 213.791C58.6272 209.564 59.7369 204.967 59.7369 200V120.74ZM110.96 168.296C112.228 173.052 114.817 176.909 118.727 179.868C122.638 182.827 127.393 184.571 132.994 185.099C138.384 185.099 142.611 184.307 145.676 182.721C148.741 181.03 151.33 178.6 153.443 175.429L168.186 182.88C165.015 188.058 160.26 192.391 153.919 195.878C147.578 199.366 140.603 201.11 132.994 201.11C125.808 201.11 119.203 199.313 113.179 195.72C107.261 192.021 102.558 187.107 99.0709 180.978C95.6891 174.742 93.9983 168.032 93.9983 160.846C93.9983 153.765 95.7948 147.16 99.3879 141.031C102.981 134.795 107.79 129.881 113.813 126.288C119.837 122.589 126.231 120.74 132.994 120.74C139.652 120.74 145.887 122.378 151.7 125.654C157.618 128.825 162.373 133.422 165.966 139.445C169.559 145.469 171.356 152.391 171.356 160.211C171.356 163.065 171.145 165.76 170.722 168.296H110.96ZM153.443 153.554C152.281 148.904 149.85 144.941 146.151 141.665C142.453 138.283 138.067 136.592 132.994 136.592C127.605 136.592 122.849 138.177 118.727 141.348C114.712 144.412 111.753 148.481 109.85 153.554H153.443ZM246.53 83.4878H264.285V200H246.53V192.391C239.238 198.309 230.837 201.268 221.326 201.268C214.034 201.268 207.27 199.472 201.035 195.878C194.906 192.285 190.044 187.424 186.451 181.295C182.858 175.06 181.062 168.296 181.062 161.004C181.062 153.712 182.858 147.001 186.451 140.872C190.044 134.637 194.906 129.723 201.035 126.13C207.27 122.537 214.034 120.74 221.326 120.74C230.837 120.74 239.238 123.699 246.53 129.617V83.4878ZM223.862 184.465C228.195 184.465 232.052 183.355 235.434 181.136C238.921 178.917 241.616 176.011 243.519 172.418C245.526 168.824 246.53 165.02 246.53 161.004C246.53 156.883 245.526 153.025 243.519 149.432C241.616 145.733 238.921 142.774 235.434 140.555C232.052 138.336 228.195 137.226 223.862 137.226C219.318 137.226 215.143 138.283 211.339 140.396C207.64 142.51 204.681 145.416 202.462 149.115C200.348 152.708 199.291 156.671 199.291 161.004C199.291 165.337 200.348 169.3 202.462 172.893C204.681 176.381 207.64 179.181 211.339 181.295C215.143 183.408 219.318 184.465 223.862 184.465ZM295.347 86.8167C292.388 86.8167 289.852 87.8735 287.738 89.9871C285.625 91.995 284.568 94.4785 284.568 97.4376C284.568 100.291 285.625 102.774 287.738 104.888C289.852 106.896 292.388 107.9 295.347 107.9C298.201 107.9 300.684 106.896 302.798 104.888C304.911 102.774 305.968 100.291 305.968 97.4376C305.968 94.4785 304.911 91.995 302.798 89.9871C300.684 87.8735 298.201 86.8167 295.347 86.8167ZM304.224 120.74H286.312V200H304.224V120.74Z" fill="#2D3D48"/>
<path d="M14.0051 269.636C15.8281 269.636 17.5058 270.099 19.0381 271.023C20.5705 271.922 21.7858 273.15 22.6841 274.709C23.6088 276.241 24.0711 277.906 24.0711 279.702C24.0711 281.499 23.6088 283.176 22.6841 284.735C21.7858 286.268 20.5705 287.496 19.0381 288.421C17.5058 289.319 15.8281 289.768 14.0051 289.768C11.7594 289.768 9.73828 289.042 7.94172 287.589V289.451H3.66168V260.323H7.94172V271.816C9.73828 270.363 11.7594 269.636 14.0051 269.636ZM13.371 285.528C14.4807 285.528 15.5111 285.264 16.4622 284.735C17.4133 284.18 18.1663 283.467 18.7211 282.595C19.2759 281.697 19.5533 280.746 19.5533 279.742C19.5533 278.711 19.2759 277.76 18.7211 276.888C18.1663 275.99 17.4133 275.277 16.4622 274.748C15.5111 274.194 14.4807 273.916 13.371 273.916C12.2878 273.916 11.3367 274.18 10.5177 274.709C9.69865 275.237 9.06457 275.951 8.61543 276.849C8.16629 277.721 7.94172 278.672 7.94172 279.702C7.94172 280.733 8.16629 281.697 8.61543 282.595C9.06457 283.493 9.69865 284.207 10.5177 284.735C11.3367 285.264 12.2878 285.528 13.371 285.528ZM41.1374 269.636H46.4875L37.0952 292.384C36.3026 294.497 35.1137 296.056 33.5285 297.06C31.9697 298.064 29.8032 298.566 27.0291 298.566H26.4347V294.484H27.0291C28.4294 294.484 29.6579 294.22 30.7147 293.692C31.798 293.163 32.5641 292.305 33.0133 291.116L33.5681 289.293L24.2154 269.636H29.5655L36.1044 283.427L41.1374 269.636ZM92.3301 289.451H87.4556L85.7515 284.933H71.8414L70.1373 289.451H65.025L75.9629 260.323H81.3922L92.3301 289.451ZM78.8559 266.426L73.5455 280.416H84.0871L78.8559 266.426ZM119.497 283.071C118.308 285.184 116.67 286.783 114.583 287.866C112.522 288.923 110.118 289.451 107.37 289.451C104.781 289.451 102.39 288.804 100.197 287.509C98.0308 286.215 96.3003 284.458 95.0057 282.239C93.7376 280.019 93.1035 277.562 93.1035 274.867C93.1035 272.199 93.7508 269.755 95.0454 267.536C96.3664 265.317 98.1233 263.56 100.316 262.265C102.509 260.97 104.86 260.323 107.37 260.323C109.959 260.323 112.271 260.852 114.306 261.908C116.34 262.939 117.965 264.431 119.18 266.387L115.257 268.209C114.173 267.126 112.958 266.307 111.611 265.752C110.29 265.171 108.876 264.881 107.37 264.881C105.574 264.881 103.896 265.317 102.337 266.188C100.805 267.06 99.5896 268.262 98.6913 269.795C97.793 271.301 97.3439 272.992 97.3439 274.867C97.3439 276.743 97.793 278.447 98.6913 279.98C99.5896 281.512 100.805 282.714 102.337 283.586C103.896 284.458 105.574 284.894 107.37 284.894C109.035 284.894 110.527 284.616 111.848 284.061C113.196 283.48 114.332 282.648 115.257 281.565L119.497 283.071ZM152.819 260.323V289.451H148.499V267.575L139.186 287.589H136.689L136.095 286.003L135.461 284.497L127.693 267.694V289.451H123.057V260.323H129.556L137.958 278.91L146.637 260.323H152.819ZM189.834 269.874H194.233V289.451H189.834V287.787C188.037 289.213 185.977 289.927 183.652 289.927C181.776 289.927 180.058 289.491 178.5 288.619C176.967 287.721 175.752 286.519 174.854 285.013C173.982 283.507 173.546 281.842 173.546 280.019C173.546 278.143 173.982 276.413 174.854 274.828C175.752 273.243 176.967 271.988 178.5 271.063C180.058 270.112 181.776 269.636 183.652 269.636C185.924 269.636 187.984 270.389 189.834 271.895V269.874ZM183.889 285.726C184.999 285.726 186.003 285.449 186.901 284.894C187.826 284.339 188.539 283.626 189.041 282.754C189.57 281.855 189.834 280.944 189.834 280.019C189.834 278.936 189.57 277.945 189.041 277.047C188.539 276.122 187.839 275.396 186.941 274.867C186.043 274.339 185.025 274.075 183.889 274.075C182.833 274.075 181.868 274.339 180.996 274.867C180.124 275.369 179.438 276.069 178.936 276.968C178.434 277.866 178.183 278.883 178.183 280.019C178.183 280.997 178.434 281.935 178.936 282.833C179.438 283.705 180.124 284.405 180.996 284.933C181.895 285.462 182.859 285.726 183.889 285.726ZM210.644 273.639H206.008V283.546C206.008 284.128 206.153 284.59 206.443 284.933C206.76 285.277 207.342 285.449 208.187 285.449H209.693V289.174C208.689 289.359 207.976 289.451 207.553 289.451C205.255 289.451 203.709 288.976 202.916 288.024C202.124 287.047 201.714 285.673 201.688 283.903V273.639H198.002V269.636H201.688V265.951L206.008 264.128V269.636H210.644V273.639ZM254.647 260.323V280.059C254.541 281.829 253.947 283.441 252.863 284.894C251.807 286.32 250.393 287.443 248.623 288.262C246.853 289.055 244.911 289.451 242.797 289.451C240.79 289.451 238.94 289.055 237.249 288.262C235.558 287.47 234.185 286.36 233.128 284.933C232.071 283.507 231.463 281.882 231.305 280.059H231.265V260.323H235.506V278.236C235.506 280.64 236.179 282.41 237.527 283.546C238.874 284.656 240.631 285.211 242.797 285.211C247.579 285.211 250.116 282.886 250.406 278.236V260.323H254.647ZM284.596 283.071C283.407 285.184 281.769 286.783 279.682 287.866C277.621 288.923 275.217 289.451 272.469 289.451C269.88 289.451 267.489 288.804 265.296 287.509C263.13 286.215 261.4 284.458 260.105 282.239C258.837 280.019 258.203 277.562 258.203 274.867C258.203 272.199 258.85 269.755 260.145 267.536C261.466 265.317 263.222 263.56 265.415 262.265C267.608 260.97 269.96 260.323 272.469 260.323C275.059 260.323 277.37 260.852 279.405 261.908C281.439 262.939 283.064 264.431 284.279 266.387L280.356 268.209C279.273 267.126 278.057 266.307 276.71 265.752C275.389 265.171 273.975 264.881 272.469 264.881C270.673 264.881 268.995 265.317 267.436 266.188C265.904 267.06 264.689 268.262 263.791 269.795C262.892 271.301 262.443 272.992 262.443 274.867C262.443 276.743 262.892 278.447 263.791 279.98C264.689 281.512 265.904 282.714 267.436 283.586C268.995 284.458 270.673 284.894 272.469 284.894C274.134 284.894 275.627 284.616 276.948 284.061C278.295 283.48 279.431 282.648 280.356 281.565L284.596 283.071ZM291.604 260.323V285.211H305.87V289.451H287.363V260.323H291.604ZM335.567 289.451H330.692L328.988 284.933H315.078L313.374 289.451H308.262L319.2 260.323H324.629L335.567 289.451ZM322.093 266.426L316.782 280.416H327.324L322.093 266.426Z" fill="#2D3D48"/>
<defs>
<filter id="filter0_f_816_7599" x="-37.7264" y="-37.3631" width="414.457" height="414.894" filterUnits="userSpaceOnUse" color-interpolation-filters="sRGB">
<feFlood flood-opacity="0" result="BackgroundImageFix"/>
<feBlend mode="normal" in="SourceGraphic" in2="BackgroundImageFix" result="shape"/>
<feGaussianBlur stdDeviation="17.3163" result="effect1_foregroundBlur_816_7599"/>
</filter>
<linearGradient id="paint0_linear_816_7599" x1="143.711" y1="0" x2="143.711" y2="287.423" gradientUnits="userSpaceOnUse">
<stop stop-color="#8CFE66"/>
<stop offset="0.309998" stop-color="#63F9DB"/>
<stop offset="0.566234" stop-color="#74E5E1"/>
<stop offset="0.786458" stop-color="#A4A3FF"/>
<stop offset="1" stop-color="#FD92FF"/>
</linearGradient>
<linearGradient id="paint1_linear_816_7599" x1="143.711" y1="0" x2="143.711" y2="287.423" gradientUnits="userSpaceOnUse">
<stop stop-color="#8CFE66"/>
<stop offset="0.309998" stop-color="#63F9DB"/>
<stop offset="0.566234" stop-color="#74E5E1"/>
<stop offset="0.786458" stop-color="#A4A3FF"/>
<stop offset="1" stop-color="#FD92FF"/>
</linearGradient>
</defs>
</svg>
