<svg width="334" height="335" viewBox="0 0 334 335" fill="none" xmlns="http://www.w3.org/2000/svg">
<path d="M110.296 24.3556C141.538 -6.88677 192.192 -6.88674 223.434 24.3556L310.298 111.22C341.541 142.462 341.541 193.116 310.298 224.358L223.434 311.222C192.192 342.464 141.538 342.464 110.296 311.222L23.4317 224.358C-7.8106 193.116 -7.81057 142.462 23.4318 111.22L110.296 24.3556Z" fill="#ED3266"/>
<path d="M246.294 159.702C246.036 156.794 249.223 155.074 251.125 157.29C256.121 163.11 259.14 170.678 259.14 178.951C259.14 186.873 256.371 194.149 251.749 199.863C249.882 202.17 246.618 200.447 246.854 197.489C247.221 192.87 247.463 187.857 247.463 182.663C247.463 175.258 246.956 167.142 246.294 159.702Z" fill="white"/>
<path d="M153.432 101.664C153.432 98.8823 155.687 96.627 158.469 96.627H175.261C178.043 96.627 180.298 98.8823 180.298 101.664V136.926H153.432V101.664Z" fill="white"/>
<path d="M74.5908 178.951C74.5908 170.678 77.6099 163.11 82.6064 157.29C84.5081 155.074 87.6952 156.794 87.4365 159.702C86.7746 167.142 86.2676 175.258 86.2681 182.663C86.2681 187.857 86.5098 192.87 86.8772 197.489C87.1125 200.447 83.8486 202.17 81.9823 199.863C77.3596 194.149 74.5908 186.873 74.5908 178.951Z" fill="white"/>
<path fill-rule="evenodd" clip-rule="evenodd" d="M239.844 149.378C239.439 145.142 235.864 141.964 231.609 141.964L102.122 141.964C97.8675 141.964 94.2925 145.142 93.8873 149.378C93.1469 157.118 92.143 169.632 92.1438 180.584C92.1438 191.969 93.1939 202.653 93.938 208.795C94.3354 212.075 96.7124 214.726 99.8998 215.596L134.014 224.899C137.957 225.975 142.109 224.059 144.218 220.557C148.709 213.099 157.211 201.574 166.866 201.574C176.521 201.574 185.023 213.099 189.514 220.557C191.623 224.059 195.774 225.975 199.718 224.899L233.832 215.596C237.019 214.726 239.396 212.074 239.793 208.795C240.537 202.653 241.588 191.969 241.588 180.584C241.588 169.632 240.584 157.118 239.844 149.378ZM213.881 173.867C218.518 173.867 222.277 170.109 222.277 165.472C222.277 160.835 218.518 157.076 213.881 157.076C209.244 157.076 205.485 160.835 205.485 165.472C205.485 170.109 209.244 173.867 213.881 173.867ZM197.09 199.055C201.726 199.055 205.485 195.296 205.485 190.659C205.485 186.022 201.726 182.263 197.09 182.263C192.453 182.263 188.694 186.022 188.694 190.659C188.694 195.296 192.453 199.055 197.09 199.055ZM124.865 158.628H128.865C131.074 158.628 132.865 160.419 132.865 162.628V171.628H141.865C144.074 171.628 145.865 173.419 145.865 175.628V179.628C145.865 181.837 144.074 183.628 141.865 183.628H132.865V192.628C132.865 194.837 131.074 196.628 128.865 196.628H124.865C122.656 196.628 120.865 194.837 120.865 192.628V183.628H111.865C109.656 183.628 107.865 181.837 107.865 179.628V175.628C107.865 173.419 109.656 171.628 111.865 171.628H120.865V162.628C120.865 160.419 122.656 158.628 124.865 158.628Z" fill="white"/>
</svg>
