<svg width="334" height="334" viewBox="0 0 334 334" fill="none" xmlns="http://www.w3.org/2000/svg">
<path d="M110.296 23.4317C141.538 -7.81059 192.192 -7.81058 223.434 23.4318L310.298 110.296C341.541 141.538 341.541 192.192 310.298 223.434L223.434 310.298C192.192 341.541 141.538 341.541 110.296 310.298L23.4317 223.434C-7.81059 192.192 -7.81058 141.538 23.4318 110.296L110.296 23.4317Z" fill="#C960FF"/>
<path d="M189.866 254.104C189.866 264.319 179.35 268.868 166.366 268.868C153.382 268.868 142.866 264.319 142.866 254.104C142.866 244.933 147.839 253.508 166.366 253.508C184.893 253.508 189.866 245.418 189.866 254.104Z" fill="white"/>
<path fill-rule="evenodd" clip-rule="evenodd" d="M166.866 246.867C186.919 246.867 203.188 238.549 203.188 219C203.188 208.944 208.381 201.27 214.348 192.453C222.403 180.551 231.867 166.567 231.867 141.826C231.867 105.943 202.772 76.8652 166.866 76.8652C130.96 76.8652 101.865 105.943 101.865 141.826C101.865 163.635 110.421 176.42 118.186 188.024C124.638 197.665 130.544 206.491 130.544 219C130.544 236.847 146.813 246.867 166.866 246.867ZM195.866 157.837C195.866 168.297 190.399 177.435 182.122 182.646V219.842C182.122 226.677 176.313 228.867 166.366 228.867C156.419 228.867 150.61 226.111 150.61 219.842V182.646C142.333 177.435 136.866 168.259 136.866 157.837C136.866 148.849 140.966 140.768 147.383 135.406C149.095 133.964 149.642 138.509 150.294 143.932C150.957 149.449 151.73 155.875 153.951 157.837C158.621 161.915 174.263 162.066 178.781 157.837C180.732 156 181.197 150.222 181.623 144.921C182.126 138.667 182.575 133.076 185.35 135.406C191.804 140.768 195.866 148.849 195.866 157.837Z" fill="white"/>
</svg>
