<svg width="334" height="335" viewBox="0 0 334 335" fill="none" xmlns="http://www.w3.org/2000/svg">
<path d="M110.296 24.3556C141.538 -6.88677 192.192 -6.88674 223.434 24.3556L310.298 111.22C341.541 142.462 341.541 193.116 310.298 224.358L223.434 311.222C192.192 342.464 141.538 342.464 110.296 311.222L23.4317 224.358C-7.8106 193.116 -7.81057 142.462 23.4318 111.22L110.296 24.3556Z" fill="#FF6B6B"/>
<path d="M189.653 102.573C189.653 115.158 179.451 125.359 166.867 125.359C154.283 125.359 144.081 115.158 144.081 102.573C144.081 89.9888 154.283 79.7871 166.867 79.7871C179.451 79.7871 189.653 89.9888 189.653 102.573Z" fill="white"/>
<path d="M189.653 233.004C189.653 245.588 179.451 255.79 166.867 255.79C154.283 255.79 144.081 245.588 144.081 233.004C144.081 220.419 154.283 210.217 166.867 210.217C179.451 210.217 189.653 220.419 189.653 233.004Z" fill="white"/>
<path d="M232.082 190.574C219.497 190.574 209.296 180.372 209.296 167.788C209.296 155.204 219.497 145.002 232.082 145.002C244.666 145.002 254.868 155.204 254.868 167.788C254.868 180.372 244.666 190.574 232.082 190.574Z" fill="white"/>
<path d="M101.651 190.574C89.0664 190.574 78.8647 180.372 78.8647 167.788C78.8647 155.204 89.0664 145.002 101.651 145.002C114.235 145.002 124.437 155.204 124.437 167.788C124.437 180.372 114.235 190.574 101.651 190.574Z" fill="white"/>
<path fill-rule="evenodd" clip-rule="evenodd" d="M172.145 107.852L106.93 173.067L96.3734 162.511L161.589 97.2953L172.145 107.852Z" fill="white"/>
<path fill-rule="evenodd" clip-rule="evenodd" d="M172.145 227.726L106.93 162.51L96.3734 173.067L161.589 238.282L172.145 227.726Z" fill="white"/>
<path fill-rule="evenodd" clip-rule="evenodd" d="M161.588 107.852L226.803 173.067L237.359 162.511L172.144 97.2953L161.588 107.852Z" fill="white"/>
<path fill-rule="evenodd" clip-rule="evenodd" d="M159.403 230.647V102.573H174.331V230.647H159.403Z" fill="white"/>
<path fill-rule="evenodd" clip-rule="evenodd" d="M103.222 159.538H152.723V174.467H103.222V159.538Z" fill="white"/>
<path fill-rule="evenodd" clip-rule="evenodd" d="M181.01 159.538H230.51V174.467H181.01V159.538Z" fill="white"/>
</svg>
